#!OML:ASF F:\VICON\USERDATA\INSTALL\rory3\rory3.ASF
:FULLY-SPECIFIED
:DEGREES
1009
root 0.847555 17.5702 3.22137 -537.812 11.737 -176.806
lowerback 21.6152 -1.61848 1.08782
upperback 2.63681 -0.590631 5.4222
thorax -9.17201 0.0926684 5.49031
lowerneck -11.5673 1.31456 -0.998609
upperneck 17.4272 3.70627 -6.08191
head 7.37052 1.37089 -1.428
rclavicle 1.59028e-014 4.77083e-015
rhumerus -58.7656 -17.2922 -57.1036
rradius 108.067
rwrist -24.9592
rhand -24.9636 0.932133
rfingers 7.12502
rthumb 1.5467 -29.042
lclavicle 1.59028e-014 4.77083e-015
lhumerus -51.7563 10.485 77.0409
lradius 43.9263
lwrist 13.0324
lhand -12.216 50.4052
lfingers 7.12502
lthumb 13.8489 79.9242
rfemur 3.15957 4.09976 28.8011
rtibia 26.4936
rfoot -26.08 -15.6315
rtoes 5.81559
lfemur -35.9158 0.961674 -13.6475
ltibia 36.1643
lfoot -11.4481 7.942
ltoes -17.2358
1010
root 0.849482 17.5667 3.13149 -537.694 11.9502 -176.633
lowerback 21.544 -1.50013 1.27033
upperback 2.75561 -0.408634 5.31216
thorax -9.02038 0.168879 5.20032
lowerneck -11.6184 1.2881 -0.732169
upperneck 17.285 3.59791 -6.11718
head 7.33369 1.32885 -1.4945
rclavicle -7.15625e-015 8.0309e-014
rhumerus -58.5184 -17.3634 -57.7927
rradius 109.142
rwrist -22.5265
rhand -23.8998 1.5064
rfingers 7.12502
rthumb 2.57412 -28.4578
lclavicle -7.15625e-015 8.0309e-014
lhumerus -51.5831 10.339 76.8582
lradius 43.6156
lwrist 12.9319
lhand -12.0517 50.4072
lfingers 7.12502
lthumb 14.0072 79.9153
rfemur 3.67716 4.17482 28.9334
rtibia 25.9588
rfoot -26.1078 -15.5543
rtoes 5.90682
lfemur -36.0939 0.377224 -12.8667
ltibia 35.0179
lfoot -11.0541 8.66733
ltoes -16.6291
1011
root 0.851221 17.5615 3.04492 -537.457 12.2909 -176.473
lowerback 21.7111 -1.38394 1.21295
upperback 2.62547 -0.269607 5.32068
thorax -9.26607 0.235558 5.21482
lowerneck -11.3988 1.29717 -0.768847
upperneck 17.2664 3.61133 -6.0851
head 7.28771 1.34334 -1.47769
rclavicle 4.6118e-014 1.59028e-014
rhumerus -58.1402 -16.8558 -58.6732
rradius 110.258
rwrist -20.5902
rhand -23.4953 1.84382
rfingers 7.12502
rthumb 2.96481 -28.1153
lclavicle 4.6118e-014 1.59028e-014
lhumerus -51.8589 10.5796 76.608
lradius 43.4221
lwrist 12.7934
lhand -11.7921 50.7722
lfingers 7.12502
lthumb 14.2574 80.2628
rfemur 3.99723 4.30266 28.9979
rtibia 25.4505
rfoot -25.916 -15.4474
rtoes 5.50198
lfemur -36.4035 -0.268102 -12.0041
ltibia 33.9068
lfoot -10.4185 9.67285
ltoes -16.8173
1012
root 0.851767 17.556 2.95641 -537.326 12.7138 -176.461
lowerback 21.8997 -1.24066 1.04226
upperback 2.57557 -0.134185 5.24441
thorax -9.43331 0.301156 5.19777
lowerneck -11.0903 1.38771 -0.764421
upperneck 16.9921 3.69999 -6.08199
head 7.14619 1.39718 -1.47054
rclavicle 5.84427e-014 1.82882e-014
rhumerus -57.467 -16.3938 -59.9193
rradius 111.319
rwrist -19.0825
rhand -23.4664 2.23045
rfingers 7.12502
rthumb 2.99271 -27.7283
lclavicle 5.84427e-014 1.82882e-014
lhumerus -51.9863 10.9407 76.265
lradius 43.1345
lwrist 12.5383
lhand -10.9799 51.3004
lfingers 7.12502
lthumb 15.0399 80.7342
rfemur 4.43459 4.52054 28.9075
rtibia 24.945
rfoot -25.5489 -15.5172
rtoes 5.19689
lfemur -36.5807 -0.781304 -11.3324
ltibia 32.8498
lfoot -10.5537 10.6482
ltoes -15.7418
1013
root 0.851012 17.5496 2.86624 -537.118 12.9549 -176.367
lowerback 21.8936 -1.13535 1.15783
upperback 2.61506 0.00626655 5.10029
thorax -9.39783 0.355961 4.92605
lowerneck -11.2214 1.41159 -0.539237
upperneck 16.979 3.69375 -6.13741
head 7.16899 1.39735 -1.52596
rclavicle 7.55382e-015 8.50798e-014
rhumerus -56.6512 -16.3025 -61.3074
rradius 112.172
rwrist -17.6303
rhand -23.6991 2.94038
rfingers 7.12502
rthumb 2.76798 -27.0214
lclavicle 7.55382e-015 8.50798e-014
lhumerus -51.7713 10.9276 76.0592
lradius 42.9225
lwrist 12.4333
lhand -10.9894 50.8629
lfingers 7.12502
lthumb 15.0307 80.2974
rfemur 4.81773 4.52805 28.878
rtibia 24.4476
rfoot -25.4106 -15.5037
rtoes 5.01586
lfemur -36.8611 -1.45795 -10.5583
ltibia 31.8524
lfoot -10.6028 11.5911
ltoes -14.8226
1014
root 0.849344 17.5427 2.77072 -536.888 13.0728 -176.329
lowerback 21.9987 -1.07083 1.14124
upperback 2.48503 0.0765458 5.06509
thorax -9.60505 0.385487 4.88409
lowerneck -11.2343 1.38182 -0.631373
upperneck 17.0815 3.6857 -6.12916
head 7.20308 1.38899 -1.50855
rclavicle -2.74323e-014 -2.38542e-014
rhumerus -55.8828 -15.7886 -62.631
rradius 112.992
rwrist -16.1882
rhand -24.6578 3.2511
rfingers 7.12502
rthumb 1.8421 -26.7207
lclavicle -2.74323e-014 -2.38542e-014
lhumerus -51.8321 11.171 75.8882
lradius 42.5503
lwrist 12.2259
lhand -11.0639 50.7625
lfingers 7.12502
lthumb 14.9589 80.2023
rfemur 5.15927 4.38667 28.78
rtibia 24.025
rfoot -25.3466 -15.4032
rtoes 3.74764
lfemur -37.2115 -2.2681 -9.81522
ltibia 30.9217
lfoot -10.4464 12.4509
ltoes -13.6716
1015
root 0.853768 17.5244 2.67235 -536.712 13.1849 -176.163
lowerback 21.8741 -1.04709 1.17414
upperback 2.5503 0.111603 5.06914
thorax -9.46765 0.400413 4.85279
lowerneck -11.0358 1.36622 -0.940503
upperneck 16.8363 3.65342 -5.9353
head 7.07916 1.37765 -1.39876
rclavicle 2.78299e-015 -4.45278e-014
rhumerus -54.6714 -15.1376 -64.3202
rradius 113.693
rwrist -14.6076
rhand -25.6746 3.40231
rfingers 7.12502
rthumb 0.860047 -26.5757
lclavicle 2.78299e-015 -4.45278e-014
lhumerus -51.6222 11.5646 75.671
lradius 42.2039
lwrist 12.1229
lhand -10.9409 50.9956
lfingers 7.12502
lthumb 15.0774 80.4265
rfemur 5.6068 4.49593 28.9446
rtibia 23.6033
rfoot -25.3082 -15.6228
rtoes 2.46312
lfemur -37.4419 -2.92802 -9.00283
ltibia 30.0917
lfoot -10.5738 13.284
ltoes -13.6711
